REM DIRINDEX 1\2,1\4,1\3\5,1\3\6,1\3\7
REM DIRNAME folder01,folder02,folder03,folder04,folder05,folder06,folder07
TITLE ""
FILE "CD2Track51.mp3" MP3
  TRACK 01 AUDIO
    TITLE "0:"
    INDEX 01 00:00:00
  TRACK 02 AUDIO
    TITLE "5:cjc081_2073"
    INDEX 01 00:00:27
  TRACK 03 AUDIO
    TITLE "0:"
    INDEX 01 00:01:50
  TRACK 04 AUDIO
    TITLE "6:cjc081_2074"
    INDEX 01 00:02:16
  TRACK 05 AUDIO
    TITLE "0:"
    INDEX 01 00:04:11
  TRACK 06 AUDIO
    TITLE "5:cjc081_2075"
    INDEX 01 00:04:54
  TRACK 07 AUDIO
    TITLE "0:"
    INDEX 01 00:06:26
  TRACK 08 AUDIO
    TITLE "6:cjc081_2076"
    INDEX 01 00:06:69
  TRACK 09 AUDIO
    TITLE "0:"
    INDEX 01 00:08:62
  TRACK 10 AUDIO
    TITLE "5:cjc081_2077"
    INDEX 01 00:09:30
  TRACK 11 AUDIO
    TITLE "0:"
    INDEX 01 00:10:43
  TRACK 12 AUDIO
    TITLE "6:cjc081_2078"
    INDEX 01 00:11:09
  TRACK 13 AUDIO
    TITLE "0:"
    INDEX 01 00:12:26
  TRACK 14 AUDIO
    TITLE "5:cjc081_2079"
    INDEX 01 00:12:69
  TRACK 15 AUDIO
    TITLE "0:"
    INDEX 01 00:14:13
  TRACK 16 AUDIO
    TITLE "6:cjc081_2080"
    INDEX 01 00:14:54
  TRACK 17 AUDIO
    TITLE "0:"
    INDEX 01 00:16:20
  TRACK 18 AUDIO
    TITLE "5:cjc081_2081"
    INDEX 01 00:16:63
  TRACK 19 AUDIO
    TITLE "0:"
    INDEX 01 00:18:17
  TRACK 20 AUDIO
    TITLE "6:cjc081_2082"
    INDEX 01 00:18:64
  TRACK 21 AUDIO
    TITLE "0:"
    INDEX 01 00:22:74
  TRACK 22 AUDIO
    TITLE "5:cjc081_2083"
    INDEX 01 00:23:44
  TRACK 23 AUDIO
    TITLE "0:"
    INDEX 01 00:24:43
  TRACK 24 AUDIO
    TITLE "6:cjc081_2084"
    INDEX 01 00:25:13
  TRACK 25 AUDIO
    TITLE "0:"
    INDEX 01 00:26:44
  TRACK 26 AUDIO
    TITLE "5:cjc081_2085"
    INDEX 01 00:27:12
  TRACK 27 AUDIO
    TITLE "0:"
    INDEX 01 00:28:62
  TRACK 28 AUDIO
    TITLE "6:cjc081_2086"
    INDEX 01 00:29:33
  TRACK 29 AUDIO
    TITLE "0:"
    INDEX 01 00:32:05
  TRACK 30 AUDIO
    TITLE "5:cjc081_2087"
    INDEX 01 00:32:47
  TRACK 31 AUDIO
    TITLE "0:"
    INDEX 01 00:33:64
  TRACK 32 AUDIO
    TITLE "6:cjc081_2088"
    INDEX 01 00:34:36
  TRACK 33 AUDIO
    TITLE "0:"
    INDEX 01 00:35:41
  TRACK 34 AUDIO
    TITLE "5:cjc081_2089"
    INDEX 01 00:36:15
  TRACK 35 AUDIO
    TITLE "0:"
    INDEX 01 00:37:34
  TRACK 36 AUDIO
    TITLE "6:cjc081_2090"
    INDEX 01 00:38:08
  TRACK 37 AUDIO
    TITLE "0:"
    INDEX 01 00:40:30
  TRACK 38 AUDIO
    TITLE "5:cjc081_2091"
    INDEX 01 00:40:73
  TRACK 39 AUDIO
    TITLE "0:"
    INDEX 01 00:42:41
  TRACK 40 AUDIO
    TITLE "6:cjc081_2092"
    INDEX 01 00:43:09
  TRACK 41 AUDIO
    TITLE "0:"
    INDEX 01 00:44:52
  TRACK 42 AUDIO
    TITLE "5:cjc081_2093"
    INDEX 01 00:45:24
  TRACK 43 AUDIO
    TITLE "0:"
    INDEX 01 00:48:22
  TRACK 44 AUDIO
    TITLE "6:cjc081_2094"
    INDEX 01 00:48:69
  TRACK 45 AUDIO
    TITLE "0:"
    INDEX 01 00:51:56
  TRACK 46 AUDIO
    TITLE "5:cjc081_2095"
    INDEX 01 00:52:20
  TRACK 47 AUDIO
    TITLE "0:"
    INDEX 01 00:53:49
  TRACK 48 AUDIO
    TITLE "6:cjc081_2096"
    INDEX 01 00:54:27
  TRACK 49 AUDIO
    TITLE "0:"
    INDEX 01 00:56:53
  TRACK 50 AUDIO
    TITLE "5:cjc081_2097"
    INDEX 01 00:57:21
  TRACK 51 AUDIO
    TITLE "0:"
    INDEX 01 00:58:20
  TRACK 52 AUDIO
    TITLE "6:cjc081_2098"
    INDEX 01 00:58:66
  TRACK 53 AUDIO
    TITLE "0:"
    INDEX 01 01:01:50
  TRACK 54 AUDIO
    TITLE "5:cjc081_2099"
    INDEX 01 01:02:12
  TRACK 55 AUDIO
    TITLE "0:"
    INDEX 01 01:05:52
  TRACK 56 AUDIO
    TITLE "6:cjc081_2100"
    INDEX 01 01:06:28
  TRACK 57 AUDIO
    TITLE "0:"
    INDEX 01 01:08:74
  TRACK 58 AUDIO
    TITLE "5:cjc081_2101"
    INDEX 01 01:09:42
  TRACK 59 AUDIO
    TITLE "0:"
    INDEX 01 01:10:67
  TRACK 60 AUDIO
    TITLE "6:cjc081_2102"
    INDEX 01 01:11:35
  TRACK 61 AUDIO
    TITLE "0:"
    INDEX 01 01:12:38
  TRACK 62 AUDIO
    TITLE "7:cjc081_2103"
    INDEX 01 01:14:00
  TRACK 63 AUDIO
    TITLE "0:"
    INDEX 01 01:24:67
